<svg id="visual" viewBox="0 0 900 600" width="900" height="600" xmlns="http://www.w3.org/2000/svg" xmlns:xlink="http://www.w3.org/1999/xlink" version="1.1"><rect x="0" y="0" width="900" height="600" fill="#dae9e4"></rect><defs><linearGradient id="grad1_0" x1="33.3%" y1="0%" x2="100%" y2="100%"><stop offset="20%" stop-color="#dae9e4" stop-opacity="1"></stop><stop offset="80%" stop-color="#dae9e4" stop-opacity="1"></stop></linearGradient></defs><defs><linearGradient id="grad2_0" x1="0%" y1="0%" x2="66.7%" y2="100%"><stop offset="20%" stop-color="#dae9e4" stop-opacity="1"></stop><stop offset="80%" stop-color="#dae9e4" stop-opacity="1"></stop></linearGradient></defs><g transform="translate(900, 0)"><path d="M0 540.8C-95 526.9 -190.1 513.1 -270.4 468.4C-350.7 423.7 -416.4 348.2 -459 265C-501.6 181.8 -521.2 90.9 -540.8 0L0 0Z" fill="#EFFFFA"></path></g><g transform="translate(0, 600)"><path d="M0 -540.8C58.4 -464.9 116.7 -388.9 204 -353.3C291.3 -317.8 407.4 -322.6 468.4 -270.4C529.3 -218.3 535.1 -109.1 540.8 0L0 0Z" fill="#EFFFFA"></path></g></svg>